<svg xmlns="http://www.w3.org/2000/svg" id="Layer_2" data-name="Layer 2" viewBox="0 0 90 90"><defs><style>.cls-1{fill:#fff}.cls-2,.cls-3{fill:#f69f93;opacity:.5}.cls-3{fill:#446586}</style></defs><title>pricing-prototype</title><circle cx="45" cy="45" r="45" class="cls-1"/><path d="M36,24V74a6.5,6.5,0,0,0,13,0V24H36Z" class="cls-2" transform="translate(-5.34 -4.49)"/><path d="M56,39V74a6.5,6.5,0,0,0,13,0V39H56Z" class="cls-2" transform="translate(-5.34 -4.49)"/><path d="M40.5,79.5A8.51,8.51,0,0,1,32,71V19H49V71A8.51,8.51,0,0,1,40.5,79.5ZM34,21V71a6.5,6.5,0,0,0,13,0V21H34Z" class="cls-3" transform="translate(-5.34 -4.49)"/><path d="M60.5,79.5A8.51,8.51,0,0,1,52,71V34H69V71A8.51,8.51,0,0,1,60.5,79.5ZM54,36V71a6.5,6.5,0,0,0,13,0V36H54Z" class="cls-3" transform="translate(-5.34 -4.49)"/></svg>